inDegrees=yes
name=ik_data_2024_11_07_18_11
DataType=double
version=3
OpenSimVersion=4.5.1
endheader
time	pelvis_tilt	pelvis_list	pelvis_rotation	pelvis_tx	pelvis_ty	pelvis_tz	hip_flexion_r	hip_adduction_r	hip_rotation_r	knee_angle_r	knee_angle_r_beta	ankle_angle_r	subtalar_angle_r	mtp_angle_r	hip_flexion_l	hip_adduction_l	hip_rotation_l	knee_angle_l	knee_angle_l_beta	ankle_angle_l	subtalar_angle_l	mtp_angle_l	lumbar_extension	lumbar_bending	lumbar_rotation	arm_flex_r	arm_add_r	arm_rot_r	elbow_flex_r	pro_sup_r	wrist_flex_r	wrist_dev_r	arm_flex_l	arm_add_l	arm_rot_l	elbow_flex_l	pro_sup_l	wrist_flex_l	wrist_dev_l
15.05018	-2.734327368948849	0.7261317892159225	-3.256959663867738	0	0.9399999999999999	0	3.132795752879506	1.864200251234515	-13.63760682362543	0.1412659187283546	0.002465555402664509	-5.003752790136725	0	0	3.033605798617935	0.614554894917227	13.58770894265873	0.5174159277885148	0.009030611542170804	-5.003752790136725	0	0	0	0	0	0	-7.828015092714383	0	70.16616863124408	45.74207178415041	0	0	0	-7.828015092714383	0	70.16616863124408	45.74207178415041	0	0
15.10612	-2.903126223053434	0.7260582464688567	-3.276992627846611	0	0.9399999999999999	0	3.09130134019752	1.773375442020351	-13.61469374277366	0.1289418399750995	0.002250459651145129	-5.003739410327477	0	0	3.188558648309957	0.6092118596023112	13.57541932891113	0.5011571321282985	0.008746842025491065	-5.003739410327477	0	0	0	0	0	0	-7.830925495095941	0	70.17000147229712	45.74045771231395	0	0	0	-7.830925495095941	0	70.17000147229712	45.74045771231395	0	0
15.16772	-3.087234123696669	0.8686396764463863	-0.5063238783067133	0	0.9399999999999999	0	2.714129312199127	1.292571213538596	-16.39160932752034	0.1264237331213836	0.002206510395630751	-5.003685064772535	0	0	3.349614500446389	0.9011944329622972	16.32195484558578	0.5098549929507389	0.008898648334722873	-5.003685064772535	0	0	0	0	0	0	-7.842832106933858	0	70.185646826271	45.73389180169462	0	0	0	-7.842832106933858	0	70.185646826271	45.73389180169462	0	0
15.16975	-3.070157868407613	0.9596311912379782	1.428198854308574	0	0.9399999999999999	0	2.4493347268226	1.008052069460795	-18.33106310756225	0.1263297985169571	0.002204870927501951	-5.003651328332309	0	0	3.305730271589045	1.10927287445588	18.24968663493439	0.5036435140216979	0.008790237575992857	-5.003651328332309	0	0	0	0	0	0	-7.850439581952879	0	70.19559303074811	45.72977195927481	0	0	0	-7.850439581952879	0	70.19559303074811	45.72977195927481	0	0
15.21643	-3.369813526100255	0.9016205924929821	0.15795184058405	0	0.9399999999999999	0	3.070569553968057	1.189433079761174	-17.04488745035779	0.1275334820645751	0.002225879168559971	-5.003586669906408	0	0	3.621719618420053	0.9776083266570414	16.97914991959234	0.5093648911587345	0.008890094444782472	-5.003586669906408	0	0	0	0	0	0	-7.864967610158343	0	70.21463299308378	45.72186801838247	0	0	0	-7.864967610158343	0	70.21463299308378	45.72186801838247	0	0
15.28295	-3.173523311834319	0.7134088617366431	-3.272971302139515	0	0.9399999999999999	0	3.017625977764746	1.618016731463615	-13.63846067084176	0.1258698182500732	0.002196842757350624	-5.003555772729028	0	0	3.451271086960646	0.5734814470314176	13.56186472706897	0.4980770348760403	0.008693084187157529	-5.003555772729028	0	0	0	0	0	0	-7.872055090054924	0	70.22388311830966	45.71806414562187	0	0	0	-7.872055090054924	0	70.22388311830966	45.71806414562187	0	0
15.33988	-3.300266515242145	0.8351346880569609	-1.157427710952791	0	0.9399999999999999	0	2.760125491734184	1.29899452261684	-15.75889691199526	0.1429899785049925	0.002495645922268038	-5.003511931485615	0	0	3.569603272873824	0.8322660157454901	15.66597834437467	0.509195391524553	0.008887136118085077	-5.003511931485615	0	0	0	0	0	0	-7.882151591317031	0	70.23706186499338	45.71265342510009	0	0	0	-7.882151591317031	0	70.23706186499338	45.71265342510009	0	0
15.34896	-3.411458045765605	0.8896272496472792	-0.1155065226401542	0	0.9399999999999999	0	2.836789571502671	1.100409180097096	-16.78869080398265	0.1355930249762944	0.002366544728575244	-5.003471903902346	0	0	3.672254631695399	0.9476495292574204	16.70826508678394	0.5134292460942635	0.008961030820377134	-5.003471903902346	0	0	0	0	0	0	-7.891642516026485	0	70.2493884246261	45.70765935752331	0	0	0	-7.891642516026485	0	70.2493884246261	45.70765935752331	0	0
15.39866	-3.497583779416247	0.8867039865853124	-0.3883118477844938	0	0.9399999999999999	0	2.996123206967897	1.27384779815077	-16.52155902128942	0.1373352933884991	0.002396953048821709	-5.003442786558116	0	0	3.770154684348504	0.9272012876808263	16.43823877747039	0.5270762289982991	0.009199215605015933	-5.003442786558116	0	0	0	0	0	0	-7.898522249843995	0	70.25834425885252	45.70402303204138	0	0	0	-7.898522249843995	0	70.25834425885252	45.70402303204138	0	0
15.46582	-3.470096632686155	0.888849134496235	-0.3394351390053557	0	0.9399999999999999	0	3.13163785696991	1.268120344243617	-16.55271014798245	0.1363486819590861	0.002379733430940644	-5.003425439427723	0	0	3.738308074187207	0.9365249987484985	16.48635389641073	0.5202419887666015	0.009079935611100551	-5.003425439427723	0	0	0	0	0	0	-7.902577219319527	0	70.26364116513254	45.70186061902557	0	0	0	-7.902577219319527	0	70.26364116513254	45.70186061902557	0	0
15.51618	-3.550163817331748	0.8480551322625609	-0.9759815953542142	0	0.9399999999999999	0	3.241514786281238	1.166490243765551	-15.93030414256021	0.1493359503556371	0.002606404025300664	-5.003400055682384	0	0	3.822882888378335	0.8496206156272517	15.8521158581911	0.506861531190555	0.008846402570975119	-5.003400055682384	0	0	0	0	0	0	-7.908648511723419	0	70.27153258170351	45.69867343744469	0	0	0	-7.908648511723419	0	70.27153258170351	45.69867343744469	0	0
15.58363	-3.593421401624431	0.8475800314607733	-0.8408884389153647	0	0.9399999999999999	0	3.109689955448238	1.097569268395289	-16.07143222188866	0.169549396997985	0.002959195222385828	-5.00337353254082	0	0	3.860830696088639	0.8553231596718809	15.98198016865423	0.5120331199628532	0.008936663822610894	-5.00337353254082	0	0	0	0	0	0	-7.914780574256976	0	70.27958712845621	45.69536751155363	0	0	0	-7.914780574256976	0	70.27958712845621	45.69536751155363	0	0
15.58879	-3.745504407755647	0.8268400397048872	-1.235235191612371	0	0.9399999999999999	0	3.444089719256789	1.029762534114655	-15.69237120688622	0.2035231791999914	0.003552149581166288	-5.003327167284041	0	0	4.011870964412058	0.806431647322819	15.58858555053265	0.5058154478520286	0.008828144972467578	-5.003327167284041	0	0	0	0	0	0	-7.925967795506646	0	70.29412671347426	45.6895157243027	0	0	0	-7.925967795506646	0	70.29412671347426	45.6895157243027	0	0
